<svg xmlns="http://www.w3.org/2000/svg" viewBox="0 0 32 32">
<path d="M 6,0
H 23
L 32,9
V 26
Q 32,32 26,32
H 6
Q 0,32 0,26
V 6
Q 0,0 6,0
Z" fill="#1a56db"/>
<g transform="translate(7.0602,25.0000) scale(0.027507,-0.027507)">
<path d="M224 0H76V698H346Q397 698 437.0 682.5Q477 667 504.5 638.0Q532 609 546.0 568.0Q560 527 560 476Q560 402 528.0 349.0Q496 296 437 279L574 0H410L293 259H224ZM310 375Q363 375 383.5 395.0Q404 415 404 461V491Q404 537 383.5 557.0Q363 577 310 577H224V375Z" fill="#ffffff"/>
</g>
</svg>